HIERARCHY
ROOT hip
{
	OFFSET 0.000000 0.000000 0.000000 
	CHANNELS 6 Xposition Yposition Zposition Xrotation Zrotation Yrotation
	JOINT abdomen
	{
		OFFSET 0.000000 3.402643 0.000000 
		CHANNELS 3 Xrotation Zrotation Yrotation
		JOINT chest
		{
			OFFSET 0.000000 8.438565 -0.680529 
			CHANNELS 3 Xrotation Zrotation Yrotation
			JOINT neck
			{
				OFFSET 0.000000 10.207942 -0.272212 
				CHANNELS 3 Xrotation Zrotation Yrotation
				JOINT head
				{
					OFFSET 0.000000 3.130431 0.000000 
					CHANNELS 3 Xrotation Zrotation Yrotation
					End Site
					{
						OFFSET 0.000000 3.130435 0.000000 
					}
				}
			}
			JOINT lCollar
			{
				OFFSET 3.470700 6.669187 -0.816635 
				CHANNELS 3 Yrotation Zrotation Xrotation
				JOINT lShldr
				{
					OFFSET 3.198488 0.000000 0.000000 
					CHANNELS 3 Zrotation Yrotation Xrotation
					JOINT lForeArm
					{
						OFFSET 10.139888 0.000000 0.000000 
						CHANNELS 3 Yrotation Zrotation Xrotation
						JOINT lHand
						{
							OFFSET 8.370511 0.000000 0.000000 
							CHANNELS 3 Zrotation Yrotation Xrotation
							End Site
							{
								OFFSET 4.083176 0.000000 0.000000 
							}
						}
					}
				}
			}
			JOINT rCollar
			{
				OFFSET -3.470700 6.669187 -0.816635 
				CHANNELS 3 Yrotation Zrotation Xrotation
				JOINT rShldr
				{
					OFFSET -3.198488 0.000000 0.000000 
					CHANNELS 3 Zrotation Yrotation Xrotation
					JOINT rForeArm
					{
						OFFSET -10.139888 0.000000 0.000000 
						CHANNELS 3 Yrotation Zrotation Xrotation
						JOINT rHand
						{
							OFFSET -8.370511 0.000000 0.000000 
							CHANNELS 3 Zrotation Yrotation Xrotation
							End Site
							{
								OFFSET -4.083176 0.000000 0.000000 
							}
						}
					}
				}
			}
		}
	}
	JOINT lThigh
	{
		OFFSET 5.308129 -1.633274 1.361059 
		CHANNELS 3 Xrotation Zrotation Yrotation
		JOINT lShin
		{
			OFFSET -2.041588 -20.007561 0.000000 
			CHANNELS 3 Xrotation Zrotation Yrotation
			JOINT lFoot
			{
				OFFSET 0.000000 -19.190928 -1.224953 
				CHANNELS 3 Xrotation Yrotation Zrotation
				End Site
				{
					OFFSET 0.000000 -2.449906 4.627600 
				}
			}
		}
	}
	JOINT rThigh
	{
		OFFSET -5.308129 -1.633274 1.361059 
		CHANNELS 3 Xrotation Zrotation Yrotation
		JOINT rShin
		{
			OFFSET 2.041588 -20.007561 0.000000 
			CHANNELS 3 Xrotation Zrotation Yrotation
			JOINT rFoot
			{
				OFFSET 0.000000 -19.190928 -1.224953 
				CHANNELS 3 Xrotation Yrotation Zrotation
				End Site
				{
					OFFSET 0.000000 -2.449906 4.627600 
				}
			}
		}
	}
}
MOTION
Frames: 16
Frame Time: 0.011111
71.397156 50.971340 0.997944 -3.684987 4.055166 -93.879242 24.021313 -3.142052 -1.905728 -32.313938 -3.177949 -0.003279 -15.681462 -8.677285 0.006089 14.671072 23.599926 -1.122984 -10.275489 -5.709454 -1.550532 -74.536201 -16.094486 -5.187684 -54.331413 8.562468 9.937613 8.524705 12.647240 -66.927139 5.831508 6.350754 -0.460990 79.787651 19.154642 -7.661338 49.486446 -7.591546 7.962326 -8.534408 -12.637552 34.652199 6.424269 -6.023428 9.362540 21.042784 -5.773536 -3.655736 -35.301235 -6.463169 -5.222839 -24.888313 -6.570992 -6.194006 28.305893 5.409484 4.605195 -21.353951 -5.216908 0.723275 
70.993393 50.959866 0.975999 -3.235115 4.169878 -94.507050 23.602831 -2.631924 -1.875654 -32.370667 -2.892990 -0.078414 -15.879546 -8.843879 0.276065 15.030470 23.407019 -0.629706 -10.275489 -5.709454 -1.550532 -74.765099 -15.978745 -5.028001 -54.521557 8.594109 10.014337 8.524705 12.647240 -66.643929 5.831508 6.350754 -0.460990 79.546982 18.978863 -7.405668 49.662735 -7.626680 8.023218 -8.534408 -12.637552 35.042824 6.576729 -5.657840 8.957704 21.257950 -5.763862 -3.673547 -36.074650 -5.868727 -4.757318 -24.439556 -5.848788 -6.112551 28.353804 5.423790 4.593464 -21.566441 -4.788222 0.830137 
70.578812 50.956154 0.955744 -2.724212 4.252239 -95.173340 23.222481 -2.086292 -1.722483 -32.329918 -2.623321 -0.126922 -15.965793 -8.696865 0.413745 15.077255 22.936190 -0.340519 -10.275489 -5.709454 -1.550532 -74.962967 -15.966640 -4.792237 -54.679054 8.616615 10.080447 8.524705 12.647240 -66.331429 5.831508 6.350754 -0.460990 79.252602 18.914902 -7.113205 49.799191 -7.663069 8.080325 -8.534408 -12.637552 35.531109 6.777013 -5.282821 8.461977 21.475105 -5.743063 -3.709790 -36.931763 -5.144517 -4.153902 -23.853058 -5.115959 -6.236535 28.346989 5.399999 4.616203 -21.675547 -4.125465 1.053564 
70.177071 50.951763 0.924685 -2.199862 4.370857 -95.822800 22.873095 -1.586994 -1.476198 -32.396786 -2.330574 -0.144290 -16.124035 -8.600222 0.561933 15.447448 22.512642 -0.010126 -10.275489 -5.709454 -1.550532 -75.130684 -15.958781 -4.489049 -54.817448 8.643537 10.143204 8.524705 12.647240 -65.950569 5.831508 6.350754 -0.460990 78.984604 18.873737 -7.133689 49.892601 -7.682699 8.121064 -8.534408 -12.637552 35.921730 6.946870 -4.847671 7.996811 21.706318 -5.748344 -3.730967 -37.762310 -4.445583 -3.564678 -23.304815 -4.383272 -6.596145 28.335754 5.409367 4.607785 -21.591026 -3.252777 1.390705 
69.788155 50.947708 0.878771 -1.720571 4.523088 -96.410179 22.515947 -1.117856 -1.374911 -32.551186 -1.905434 -0.197551 -16.280287 -8.514838 0.772495 16.056402 21.996614 0.463736 -10.275489 -5.709454 -1.550532 -75.384575 -16.007219 -4.379405 -54.932922 8.658768 10.188612 8.524705 12.647240 -65.638069 5.831508 6.350754 -0.460990 78.608841 18.760983 -7.112463 49.851734 -7.678260 8.108236 -8.534408 -12.637552 36.224468 7.102220 -4.447193 7.441781 21.911430 -5.734812 -3.756869 -38.496956 -3.828879 -2.998860 -22.798552 -3.729488 -7.075404 28.276073 5.409339 4.602541 -21.599358 -2.413524 1.692225 
69.389458 50.947376 0.831169 -1.340173 4.752125 -97.014725 21.994150 -0.747021 -1.265425 -32.588585 -1.430371 -0.253310 -16.435881 -8.418997 0.979857 16.520699 21.395765 0.895416 -10.275489 -5.709454 -1.550532 -75.646881 -16.156904 -4.276564 -55.007404 8.673742 10.229139 8.524705 12.647240 -65.364639 5.831508 6.350754 -0.460990 78.119858 18.694126 -6.961580 49.726128 -7.645856 8.050288 -8.534408 -12.637552 36.361183 7.218397 -4.173512 6.639161 22.124645 -5.728661 -3.784927 -39.266819 -3.082402 -2.297513 -22.396767 -3.153015 -7.426398 28.216433 5.409070 4.597239 -21.682711 -1.656442 1.953869 
68.967789 50.952774 0.772764 -0.989982 4.935179 -97.520088 21.415190 -0.509916 -1.073362 -32.509388 -0.967347 -0.260788 -16.457094 -8.338754 1.082807 16.809591 20.898737 1.119591 -10.275489 -5.709454 -1.550532 -75.796288 -16.285063 -3.923129 -55.155518 8.696477 10.284435 8.524705 12.647240 -65.042366 5.831508 6.350754 -0.460990 77.681137 18.692244 -7.107705 49.590675 -7.615596 8.001967 -8.534408 -12.637552 36.185406 7.401789 -3.915607 5.818648 22.359304 -5.715250 -3.823145 -39.945068 -2.382853 -1.628819 -21.890074 -2.606683 -7.667858 28.125029 5.419706 4.591921 -21.839052 -1.018454 2.188537 
68.534653 50.965607 0.695792 -0.628943 4.986029 -97.900589 20.982931 -0.289765 -0.974160 -32.469730 -0.440804 -0.304828 -16.470427 -8.305554 1.197528 17.225368 20.433193 1.377714 -10.275489 -5.709454 -1.550532 -75.979843 -16.389914 -3.627055 -55.356407 8.727645 10.372484 8.524705 12.647240 -64.700569 5.831508 6.350754 -0.460990 77.253410 18.681877 -7.409953 49.465130 -7.582534 7.944410 -8.534408 -12.637552 35.853374 7.728703 -3.619773 4.870070 22.653212 -5.705992 -3.867364 -40.547657 -1.695984 -0.954449 -21.204618 -2.088758 -7.891796 28.014242 5.429103 4.573829 -21.960724 -0.472187 2.379737 
68.111977 50.976746 0.615443 -0.335883 5.043870 -98.372139 20.561083 -0.152361 -0.873968 -32.421028 0.135563 -0.345127 -16.682352 -8.302993 1.362012 17.923187 20.037394 1.719623 -10.275489 -5.709454 -1.550532 -76.130005 -16.607908 -3.328958 -55.513855 8.747279 10.439849 8.524705 12.647240 -64.231819 5.831508 6.350754 -0.460990 76.817039 18.739452 -7.760674 49.329731 -7.551588 7.895198 -8.534408 -12.637552 35.599468 8.005926 -3.416979 3.758193 23.050009 -5.685833 -3.919253 -41.203739 -1.001708 -0.248886 -20.551243 -1.600704 -8.059607 27.895172 5.428856 4.553582 -21.908188 0.167129 2.639317 
67.700111 50.980793 0.533407 -0.099096 5.128992 -98.953499 20.160234 -0.101984 -0.699410 -32.334133 0.736887 -0.348009 -16.929998 -8.207262 1.495088 18.531319 19.476883 1.998716 -10.275489 -5.709454 -1.550532 -76.278015 -16.835497 -2.991874 -55.811077 8.795009 10.571322 8.524705 12.647240 -63.626354 5.831508 6.350754 -0.460990 76.367043 18.903751 -8.179089 49.131241 -7.499807 7.809796 -8.534408 -12.637552 35.482277 8.153128 -3.182791 3.253993 23.636339 -5.666579 -4.007361 -41.589615 -0.657679 0.124548 -19.955746 -1.180821 -8.324480 27.794321 5.438029 4.537213 -21.880789 0.997193 2.971346 
67.290932 50.983498 0.442592 0.108902 5.223884 -99.529732 19.710835 -0.060444 -0.555723 -32.218925 1.385491 -0.364499 -17.056837 -8.088077 1.627669 18.926945 18.817026 2.266891 -10.275489 -5.709454 -1.550532 -76.397011 -17.107357 -2.702697 -56.054070 8.827824 10.670999 8.524705 12.647240 -63.216194 5.831508 6.350754 -0.460990 75.871300 19.121876 -8.505136 48.892933 -7.448542 7.719754 -8.534408 -12.637552 35.501812 8.150966 -2.859539 3.504717 24.403872 -5.641054 -4.100199 -41.530334 -0.723569 0.042193 -19.357216 -0.828803 -8.762006 27.734365 5.439202 4.531406 -22.252657 1.876691 3.289287 
66.897293 50.992275 0.339963 0.237457 5.469907 -100.003265 19.086040 -0.116962 -0.487593 -32.036270 2.043023 -0.386834 -17.090870 -8.074202 1.743359 19.100323 18.392334 2.440426 -10.275489 -5.709454 -1.550532 -76.312263 -17.509455 -2.260110 -56.107006 8.835227 10.694187 8.524705 12.647240 -62.962296 5.831508 6.350754 -0.460990 75.450737 19.437328 -8.937361 48.663433 -7.388045 7.625882 -8.534408 -12.637552 35.540871 7.859503 -2.479561 4.272316 25.322273 -5.597896 -4.243213 -41.095322 -1.043365 -0.308467 -18.961433 -0.566223 -9.248791 27.674313 5.439128 4.535856 -22.750875 2.705309 3.621642 
66.515472 51.003418 0.235306 0.355266 5.705965 -100.387833 18.529547 -0.192626 -0.451318 -31.913092 2.699041 -0.417323 -17.118395 -8.077538 1.799834 19.252913 18.048384 2.533348 -10.275489 -5.709454 -1.550532 -76.262383 -17.699110 -1.656201 -56.488434 8.887341 10.851394 8.524705 12.647240 -62.610725 5.831508 6.350754 -0.460990 75.098610 19.750902 -9.430035 48.486427 -7.343164 7.559680 -8.534408 -12.637552 35.618999 7.471622 -2.037417 5.329912 26.409525 -5.554076 -4.360771 -40.389000 -1.457144 -0.815932 -18.552692 -0.331977 -9.730201 27.633114 5.448577 4.524776 -22.994314 3.548187 3.971254 
66.119804 51.007469 0.142467 0.517527 5.702959 -100.795868 18.228041 -0.195024 -0.351916 -31.829651 3.327062 -0.434338 -17.133537 -8.054113 1.878151 19.471663 17.615906 2.654574 -10.275489 -5.709454 -1.550532 -76.251495 -17.796644 -1.106017 -57.060741 8.962770 11.109205 8.524705 12.647240 -62.298229 5.831508 6.350754 -0.460990 74.728607 20.052637 -9.824522 48.330925 -7.306633 7.501675 -8.534408 -12.637552 35.775249 7.253799 -1.581339 6.668281 27.696676 -5.481133 -4.547949 -39.514736 -1.974601 -1.373833 -17.934004 -0.058324 -9.976501 27.641474 5.462887 4.499754 -23.400877 4.314802 4.287079 
65.722450 51.006794 0.053678 0.672118 5.602551 -101.174347 17.977610 -0.249552 -0.183873 -31.687368 3.859892 -0.423127 -16.974390 -7.885870 1.888238 19.442097 17.030828 2.684618 -10.275489 -5.709454 -1.550532 -76.039085 -18.014874 -0.419132 -57.412125 9.009574 11.256101 8.524705 12.647240 -62.054085 5.831508 6.350754 -0.460990 74.451874 20.384834 -10.088530 48.227100 -7.279460 7.453840 -8.534408 -12.637552 36.009621 7.034409 -1.120850 8.084404 29.140070 -5.407817 -4.717832 -38.545502 -2.555093 -2.027087 -17.242491 0.205248 -9.923337 27.633114 5.448575 4.524776 -23.901520 4.769206 4.506297 
65.343330 50.972015 -0.037136 0.783447 5.556905 -101.479507 17.688934 -0.357943 -0.037535 -31.496164 4.354251 -0.401469 -16.971933 -7.881212 1.936415 19.677021 16.871660 2.763600 -10.275489 -5.709454 -1.550532 -75.664345 -18.261782 0.441868 -57.676418 9.037550 11.371162 8.524705 12.647240 -61.507214 5.831508 6.350754 -0.460990 74.239548 20.744150 -10.136448 48.195965 -7.272162 7.444506 -8.534408 -12.637552 36.370953 6.639871 -0.751394 8.831059 30.851223 -5.296018 -4.960366 -37.810867 -2.777120 -2.279529 -16.674168 0.430080 -9.707699 27.664675 5.439121 4.525273 -24.405083 5.072259 4.656185 
